<?xml version="1.0" standalone="no"?>
<!DOCTYPE svg PUBLIC "-//W3C//DTD SVG 20010904//EN"
 "http://www.w3.org/TR/2001/REC-SVG-20010904/DTD/svg10.dtd">
<svg version="1.0" xmlns="http://www.w3.org/2000/svg"
 width="584.000000pt" height="584.000000pt" viewBox="0 0 584.000000 584.000000"
 preserveAspectRatio="xMidYMid meet">
<metadata>
Created by potrace 1.11, written by Peter Selinger 2001-2013
</metadata>
<g transform="translate(0.000000,584.000000) scale(0.100000,-0.100000)"
fill="#000000" stroke="none">
<path d="M1315 5419 c-83 -9 -163 -49 -220 -110 -71 -75 -93 -135 -110 -289
-8 -72 -19 -156 -24 -187 -14 -92 -9 -90 187 74 65 56 86 62 118 39 16 -12 19
-25 16 -88 -3 -75 -65 -362 -109 -501 -32 -102 -49 -120 -116 -115 -60 4 -53
20 -87 -209 l-23 -152 24 -30 c75 -93 275 -129 404 -72 77 34 111 73 139 160
36 109 90 323 126 496 53 257 86 354 126 369 23 9 60 -17 80 -56 14 -26 52
-210 54 -254 0 -14 285 -13 299 1 5 6 19 45 30 88 30 114 69 195 102 213 57
29 103 11 115 -44 3 -15 8 -33 10 -41 6 -19 -14 -171 -37 -281 -69 -326 -65
-503 13 -577 62 -59 181 -103 278 -103 68 0 188 32 254 68 28 15 86 64 129
109 88 90 123 111 156 94 40 -22 40 -25 -15 -421 -21 -149 -58 -357 -99 -559
-19 -96 -35 -175 -35 -175 0 -1 94 -1 210 -1 201 0 209 1 214 20 3 11 12 74
21 140 25 183 81 513 114 679 49 238 112 346 213 361 65 10 116 -12 153 -63
28 -41 30 -49 29 -135 0 -51 -11 -162 -23 -247 -46 -303 -8 -530 110 -665 68
-77 192 -127 319 -128 138 0 252 43 352 136 43 40 47 46 39 73 -12 39 -121
297 -130 307 -4 4 -24 -8 -45 -28 -45 -42 -130 -70 -183 -60 -107 20 -156 190
-124 430 26 196 32 338 17 425 -28 157 -130 321 -241 385 -79 46 -208 56 -327
26 -109 -28 -186 -71 -245 -135 l-51 -55 -12 45 c-15 54 -63 99 -122 115 -53
14 -146 -7 -222 -50 -59 -32 -145 -130 -205 -230 -70 -119 -142 -160 -191
-111 -17 17 -20 33 -20 108 0 48 7 130 15 182 35 220 28 687 -12 811 -21 66
-96 146 -169 180 -67 32 -187 33 -255 1 -59 -28 -133 -93 -160 -142 l-22 -40
-33 48 c-41 61 -94 108 -153 135 -37 17 -66 21 -146 21 -90 1 -106 -2 -157
-28 -31 -15 -72 -43 -90 -62 -37 -38 -48 -42 -48 -16 0 25 -35 78 -63 97 -38
25 -77 31 -142 24z"/>
<path d="M1160 3526 c-125 -26 -204 -125 -247 -307 -25 -107 -27 -129 -27
-364 -1 -236 1 -257 27 -380 56 -262 117 -418 251 -643 136 -228 261 -375 436
-515 135 -108 169 -131 395 -268 230 -138 258 -158 338 -235 78 -76 146 -175
214 -311 l46 -93 935 0 935 0 -7 97 c-7 104 -45 313 -78 433 -30 110 -122 337
-206 510 -26 53 -126 182 -191 247 -69 68 -228 167 -456 283 -88 46 -201 111
-250 145 -205 142 -356 355 -450 635 -31 91 -50 181 -95 444 -23 132 -44 181
-97 231 -54 51 -91 65 -172 65 -56 0 -82 -5 -119 -24 -137 -70 -192 -192 -192
-426 0 -184 36 -410 93 -581 46 -136 139 -340 194 -421 45 -67 47 -76 9 -33
-79 88 -189 297 -260 495 -52 144 -96 450 -96 675 0 130 -29 211 -97 277 -49
48 -83 60 -164 60 -78 0 -119 -16 -185 -75 -87 -76 -123 -195 -131 -422 -9
-257 23 -458 117 -753 45 -139 73 -199 137 -292 l44 -65 -61 64 c-47 50 -75
93 -125 195 -120 246 -159 436 -170 821 -7 267 -12 316 -37 382 -46 123 -135
175 -258 149z"/>
</g>
</svg>
